<?xml version="1.0" encoding="UTF-8"?>
<svg id="Camada_1" data-name="Camada 1" xmlns="http://www.w3.org/2000/svg" xmlns:xlink="http://www.w3.org/1999/xlink" viewBox="0 0 676.24 166.27">
  <defs>
    <style>
      .cls-1 {
        fill: url(#Gradiente_sem_nome_2);
      }

      .cls-2 {
        fill: #fff;
      }

      .cls-3 {
        fill: url(#Gradiente_sem_nome_2-2);
      }

      .cls-4 {
        fill: #3751ff;
      }
    </style>
    <linearGradient id="Gradiente_sem_nome_2" data-name="Gradiente sem nome 2" x1="545.65" y1="109.28" x2="640.49" y2="109.28" gradientUnits="userSpaceOnUse">
      <stop offset="0" stop-color="#3751ff"/>
      <stop offset="1" stop-color="#3751ff"/>
    </linearGradient>
    <linearGradient id="Gradiente_sem_nome_2-2" data-name="Gradiente sem nome 2" x1="641.46" x2="663.46" xlink:href="#Gradiente_sem_nome_2"/>
  </defs>
  <g id="Mannu.Ai">
    <path id="M" class="cls-2" d="M116.18,163.41V52.51l-35.43,110.9h-23.54L22,52.73v110.68H0V17.3h34.77l34.77,116.4L104.3,17.3h33.89v146.11h-22Z"/>
    <path id="a" class="cls-2" d="M188.42,52.29c-24.9,0-37.91,8.44-43.24,21.82v16.24h17.49c1.1-12.76,7.92-20.91,24.86-20.91,15.84,0,23.54,6.82,23.54,18.48-.88,7.92-8.36,9.02-23.98,11.22-17.51,2.37-33.42,4.76-41.92,14.77v41.74c5.7,6.87,15.24,10.61,28.94,10.61,19.8,0,31.91-7.92,37.63-17.6.22,2.64.66,12.76,1.32,14.74h20.46v-68.43c0-27.28-11.44-42.69-45.11-42.69ZM211.31,123.14c-.66,15.4-13.64,27.28-31.91,27.28-12.54,0-18.7-5.72-18.7-16.5,0-13.42,9.24-17.16,26.63-20.02,11.66-1.76,20.9-2.64,24.2-6.38l-.22,15.62Z"/>
    <path id="n" class="cls-2" d="M293.43,52.29c-17.6,0-31.47,7.7-37.85,24.42v-21.56h-21.12v11.42c4.06,7.47,6.07,16.92,6.07,28.4v68.43h15.93v-56.11c0-22.44,7.48-36.31,29.49-36.31,14.74,0,22.22,6.16,22.22,25.75v66.67h22v-73.71c0-25.96-15.4-37.41-36.75-37.41Z"/>
    <path id="n-2" data-name="n" class="cls-2" d="M390.33,52.29c-17.6,0-31.47,7.7-37.85,24.42v-21.56h-21.12v9.66c3.8,6.76,5.82,15.13,5.82,24.89v73.71h16.19v-56.11c0-22.44,7.48-36.31,29.49-36.31,14.74,0,22.22,6.16,22.22,25.75v66.67h22v-73.71c0-25.96-15.4-37.41-36.75-37.41Z"/>
    <path id="u" class="cls-2" d="M501.42,55.15v56.55c0,19.14-6.82,36.09-28.83,36.09-15.4,0-22.44-8.36-22.44-28.17V55.15h-22v9.45c3.87,6.8,5.94,15.24,5.94,25.09v60.42c6.45,10.58,17.72,16.15,31.69,16.15,15.62,0,29.71-6.82,36.75-23.76v20.9h20.68V55.15h-21.78Z"/>
    <path id="_." data-name="." class="cls-2" d="M535.81,140.53c-2.03,0-3.94.51-5.61,1.43v21.08c1.67.94,3.58,1.48,5.61,1.48,6.38,0,11.88-5.28,11.88-12.1s-5.5-11.88-11.88-11.88Z"/>
    <path id="a-2" data-name="a" class="cls-1" d="M595.38,52.29c-33.89,0-45.77,15.62-46.21,38.07h20.46c1.1-12.76,7.92-20.91,24.86-20.91,15.84,0,23.54,6.82,23.54,18.48-.88,7.92-8.36,9.02-23.98,11.22-25.97,3.52-48.41,7.04-48.41,35.43,0,.59.01,1.18.03,1.76,5.4,3.33,9.02,9.28,9.02,16.07,0,1.81-.27,3.55-.73,5.21,5.82,5.62,14.78,8.65,27.11,8.65,19.8,0,31.91-7.92,37.63-17.6.22,2.64.66,12.76,1.32,14.74h20.46v-68.43c0-27.28-11.44-42.69-45.11-42.69ZM618.26,123.14c-.66,15.4-13.64,27.28-31.91,27.28-12.54,0-18.7-5.72-18.7-16.5,0-13.42,9.24-17.16,26.63-20.02,11.66-1.76,20.9-2.64,24.2-6.38l-.22,15.62Z"/>
    <g id="i">
      <path id="i-2" data-name="i" class="cls-3" d="M641.46,66.66c4.03,7.45,6.03,16.88,6.03,28.32v68.43h15.98V55.15h-22v11.51Z"/>
    </g>
    <path id="Brilho" class="cls-4" d="M676.24,23.79l-8.93,4.07c-5.29,2.4-9.25,6.04-11.18,10.31l-2.7,5.96-.6,1.31-.36.67-.38-.67-.6-1.31-2.7-5.96c-1.93-4.27-5.89-7.91-11.18-10.31l-8.93-4.07,8.89-4.42c4.67-2.33,8.19-5.66,10.06-9.5l4.79-9.87.04.06.02-.06,4.79,9.87c1.87,3.84,5.39,7.17,10.06,9.5l8.89,4.42Z"/>
  </g>
</svg>